HIERARCHY
ROOT hip
{
  OFFSET 0 0 0
  CHANNELS 6 Xposition Yposition Zposition Zrotation Xrotation Yrotation
  JOINT abdomen
  {
    OFFSET 0.382895 7.23034 -0.0131712
    CHANNELS 3 Zrotation Xrotation Yrotation
    JOINT chest
    {
      OFFSET -0.00014019 16.533 -0.765569
      CHANNELS 3 Zrotation Xrotation Yrotation
      JOINT neck
      {
        OFFSET -0.000935256 36.4659 -4.32784
        CHANNELS 3 Zrotation Xrotation Yrotation
        JOINT head
        {
          OFFSET 0 10.451 2.78238
          CHANNELS 3 Zrotation Xrotation Yrotation
          End Site
          {
            OFFSET 0 13.6483 2.8643
          }
        }
      }
      JOINT lCollar
      {
        OFFSET 3.05824 30.965 -6.75914
        CHANNELS 3 Zrotation Xrotation Yrotation
        JOINT lShldr
        {
          OFFSET 15.0645 0.0677185 -0.441112
          CHANNELS 3 Zrotation Xrotation Yrotation
          JOINT lForeArm
          {
            OFFSET 29.6373 0.773616 0.573952
            CHANNELS 3 Zrotation Xrotation Yrotation
            JOINT lHand
            {
              OFFSET 27.1742 0.781669 2.11781
              CHANNELS 3 Zrotation Xrotation Yrotation
              End Site
              {
                OFFSET 8.97646 -0.320343 0.148499
              }
            }
          }
        }
      }
      JOINT rCollar
      {
        OFFSET -3.05827 30.965 -6.75913
        CHANNELS 3 Zrotation Xrotation Yrotation
        JOINT rShldr
        {
          OFFSET -15.0645 0.0677032 -0.441067
          CHANNELS 3 Zrotation Xrotation Yrotation
          JOINT rForeArm
          {
            OFFSET -29.6374 0.773639 0.574028
            CHANNELS 3 Zrotation Xrotation Yrotation
            JOINT rHand
            {
              OFFSET -27.1742 0.781677 2.11789
              CHANNELS 3 Zrotation Xrotation Yrotation
              End Site
              {
                OFFSET -8.97646 -0.320343 0.148529
              }
            }
          }
        }
      }
    }
  }
  JOINT lThigh
  {
    OFFSET 8.73786 0 0
    CHANNELS 3 Zrotation Xrotation Yrotation
    JOINT lShin
    {
      OFFSET -0.21864 -43.6387 -2.09098
      CHANNELS 3 Zrotation Xrotation Yrotation
      JOINT lFoot
      {
        OFFSET -0.769398 -43.3017 -5.75582
        CHANNELS 3 Zrotation Xrotation Yrotation
        JOINT lToe
        {
          OFFSET 2.46991 -8.89869 14.0045
          CHANNELS 3 Zrotation Xrotation Yrotation
          End Site
          {
            OFFSET -0.0327001 -0.0137969 4.57021
          }
        }
      }
    }
  }
  JOINT rThigh
  {
    OFFSET -8.73786 0 1.74046e-005
    CHANNELS 3 Zrotation Xrotation Yrotation
    JOINT rShin
    {
      OFFSET 0.218533 -43.6387 -2.09099
      CHANNELS 3 Zrotation Xrotation Yrotation
      JOINT rFoot
      {
        OFFSET 0.769259 -43.3017 -5.75565
        CHANNELS 3 Zrotation Xrotation Yrotation
        JOINT rToe
        {
          OFFSET -2.37052 -8.8846 14.0306
          CHANNELS 3 Zrotation Xrotation Yrotation
          End Site
          {
            OFFSET 0.0327168 0 4.57023
          }
        }
      }
    }
  }
}
MOTION
Frames:	8
Frame Time:	0.0333333
22.3819 95.8051 -3.93796 4.0428 -4.68351 21.4387 -1.0035 4.01946 -0.918552 -3.56012 13.4986 -2.94086 3.42411 -4.72176 6.44659 -0.739307 4.11882 6.83411 -9.3739 -0.124413 -1.74221 -51.5177 15.9073 6.04873 1.44033 0.374115 -28.9442 23.4268 -23.5719 4.5878 9.37389 -0.124387 1.7422 52.8127 31.4464 6.00871 -1.18242 0.362534 23.9735 -2.95894 -47.2415 24.861 -8.8677 1.80909 21.0597 -1.29078 8.52685 0.114865 8.42809 -10.4511 -0.115086 0.0389805 -0.108835 9.99936 -9.41248 -10.7519 -5.57022 1.65977 10.9085 -0.182383 -5.87117 8.09841 1.82395 1.13079e-005 2.13443e-007 -9.99999 
22.6821 95.7235 -3.73735 4.43845 -4.50507 22.1396 -1.11842 3.95395 -0.991686 -4.00721 13.2446 -3.09414 2.03874 -4.48366 5.38631 0.482389 3.59605 5.42409 -9.37391 -0.124399 -1.7422 -51.4846 15.8431 6.47239 1.44034 0.374113 -28.9442 23.4268 -23.5719 4.5878 9.37389 -0.124373 1.7422 53.0799 31.8181 5.81947 -1.18242 0.362512 23.9736 -2.95893 -47.2415 24.861 -9.26985 1.80313 20.4368 -1.3617 8.98735 0.12666 8.53974 -10.7295 -0.0755622 0.0389803 -0.108849 9.99938 -10.047 -9.67134 -6.70158 1.51873 10.0024 -0.154811 -4.94743 7.51175 1.60898 -8.88403e-007 9.71168e-006 -10 
22.9174 95.7601 -3.53006 4.3089 -4.61484 22.8259 -1.03798 3.9024 -0.950472 -3.69756 13.0329 -3.01048 1.34934 -4.62783 4.45253 0.485694 3.81327 4.45945 -9.3739 -0.124409 -1.74222 -51.6992 16.0933 6.63078 1.44034 0.374098 -28.9442 23.4268 -23.5719 4.58781 9.3739 -0.124381 1.7422 53.1112 31.8117 5.46487 -1.18242 0.362532 23.9736 -2.95893 -47.2415 24.861 -9.11934 1.98037 19.7793 -1.3975 9.21917 0.13283 8.61329 -10.8946 -0.0568574 0.0389853 -0.108847 9.99937 -9.83736 -8.21549 -7.34451 1.24591 8.23509 -0.107701 -4.22057 7.95141 1.59674 9.59548e-006 -9.49823e-006 -10 
23.0677 95.8269 -3.39392 4.03943 -4.54275 23.5113 -0.939448 3.8153 -0.9176 -3.29817 12.6804 -3.02065 0.0806717 -4.99103 3.5433 1.32999 4.07099 3.29084 -9.3739 -0.12441 -1.74221 -52.0369 16.3408 6.99518 1.44034 0.374105 -28.9442 23.4268 -23.5719 4.5878 9.37389 -0.124377 1.7422 53.1572 31.9713 4.97978 -1.18243 0.362534 23.9735 -2.95892 -47.2415 24.861 -8.90248 1.94352 19.0654 -1.40846 9.29018 0.134751 8.63537 -10.9314 -0.050289 0.0389849 -0.108822 9.99939 -9.74298 -7.65366 -7.91358 1.16474 7.70584 -0.0952901 -3.71402 7.81452 1.53847 5.18285e-006 -1.06722e-007 -9.99999 
23.139 95.8353 -3.28428 3.90172 -4.32596 24.0749 -0.84722 3.71092 -0.781763 -3.0119 12.2505 -2.53635 -0.606147 -5.39254 2.65156 1.58638 4.13897 2.30306 -9.37389 -0.124409 -1.7422 -52.3745 17.1779 7.14 1.44034 0.374112 -28.9442 23.4268 -23.5719 4.5878 9.3739 -0.124374 1.74221 53.3793 31.6227 4.05629 -1.18241 0.362521 23.9736 -2.95895 -47.2415 24.861 -8.86227 1.85482 18.4587 -1.39342 9.19283 0.132132 8.6262 -10.8845 -0.0500482 0.0389785 -0.108833 9.99938 -9.78303 -7.6811 -8.51462 1.17495 7.7725 -0.0968174 -3.79126 7.75437 1.53413 4.42749e-006 5.44281e-006 -9.99999 
23.1982 95.807 -3.19814 3.88464 -4.01479 24.9754 -0.873163 3.65642 -0.839872 -3.07333 12.0385 -2.80246 -1.30421 -6.00379 2.11126 2.19356 3.94124 1.60256 -9.3739 -0.124417 -1.74221 -52.4686 17.0059 7.55233 1.44034 0.374105 -28.9442 23.4268 -23.5719 4.58781 9.3739 -0.124381 1.74221 53.4721 32.0437 3.96161 -1.18241 0.36252 23.9735 -2.95893 -47.2415 24.861 -8.94041 1.72344 17.5034 -1.38049 9.10897 0.12989 8.59851 -10.8458 -0.054272 0.0389759 -0.108848 9.99937 -9.9477 -7.57143 -9.51847 1.15568 7.64671 -0.0939555 -4.01959 7.74376 1.55544 1.58335e-006 -8.53774e-007 -9.99999 
23.2376 95.7837 -3.10739 3.9464 -3.84387 25.8239 -0.943844 3.57117 -0.89862 -3.32153 11.7062 -3.04726 -2.1234 -5.96332 1.8359 3.0893 3.49531 1.10091 -9.37389 -0.124398 -1.74221 -52.4214 16.892 8.12969 1.44033 0.374102 -28.9442 23.4268 -23.5719 4.58781 9.3739 -0.124372 1.7422 53.8457 32.5559 3.71299 -1.18241 0.362518 23.9735 -2.95893 -47.2415 24.861 -9.03824 1.77226 16.6422 -1.35532 8.94582 0.125565 8.55386 -10.7512 -0.061611 0.0389863 -0.108835 9.99937 -10.0576 -7.12362 -10.3875 1.08468 7.18258 -0.083783 -4.1228 7.80979 1.57731 9.34557e-006 8.75118e-006 -10 
23.2717 95.7775 -3.03951 3.94927 -3.66335 26.6066 -0.97249 3.51746 -0.792182 -3.50499 11.4863 -2.63337 -2.48967 -6.22113 1.10074 3.59287 3.52528 0.213247 -9.3739 -0.124418 -1.74221 -52.2428 17.4508 8.16688 1.44037 0.374102 -28.9442 23.4268 -23.5719 4.5878 9.3739 -0.124392 1.74221 54.3487 32.2577 3.1603 -1.18242 0.362524 23.9736 -2.95894 -47.2415 24.861 -9.07901 1.7369 15.8177 -1.34026 8.84823 0.123037 8.51002 -10.6762 -0.0672711 0.0389891 -0.108837 9.99937 -10.0893 -6.59213 -11.1259 0.981951 6.50895 -0.0700628 -4.07419 7.90905 1.58833 3.63582e-006 5.86969e-006 -10 
